<?xml version="1.0" encoding="utf-8"?>
<!-- Generator: Adobe Illustrator 24.0.1, SVG Export Plug-In . SVG Version: 6.00 Build 0)  -->
<svg version="1.1" id="Calque_1" xmlns="http://www.w3.org/2000/svg" xmlns:xlink="http://www.w3.org/1999/xlink" x="0px" y="0px"
	 viewBox="0 0 124.4 30" style="enable-background:new 0 0 124.4 30;" xml:space="preserve">
<style type="text/css">
	.st0{fill:#1D3561;}
	.st1{fill:#61C2E1;}
	.st2{fill:#1F3460;}
	.st3{fill:#20294B;}
</style>
<g>
	<g>
		<g>
			<path class="st0" d="M42.8,16.4h1l5.3-5.8h5.6l-6.1,6.7l6.5,9.4h-5.4l-4.2-6h-2.6v6h-4.7V2.8h4.7L42.8,16.4L42.8,16.4z"/>
			<path class="st0" d="M63.5,10.1c2.1,0,5.2,0.3,9.2,0.8v15.9H68v-1.2c-1.4,1.1-3.1,1.7-4.8,1.7c-2.3,0-4.1-0.8-5.6-2.4
				c-1.4-1.6-2.2-3.7-2.2-6.3c0.1-2.6,0.8-4.7,2.2-6.2C59,10.9,61,10.1,63.5,10.1z M64.2,14c-2.8,0-4.2,1.6-4.2,4.8
				c0,1.4,0.4,2.5,1.1,3.3c0.7,0.8,1.7,1.3,2.9,1.3c1.4,0,2.8-0.5,4.1-1.6v-7.6C66.5,14.1,65.3,14,64.2,14z"/>
			<path class="st0" d="M82,2.8v23.9h-4.7V2.8H82z"/>
			<path class="st0" d="M93.6,10.1c2.1,0,5.2,0.3,9.2,0.8v15.9h-4.7v-1.2c-1.4,1.1-3.1,1.7-4.8,1.7c-2.3,0-4.1-0.8-5.6-2.4
				c-1.4-1.6-2.2-3.7-2.2-6.3c0.1-2.6,0.8-4.7,2.2-6.2S91.1,10.1,93.6,10.1z M94.3,14c-2.8,0-4.2,1.6-4.2,4.8c0,1.4,0.4,2.5,1.1,3.3
				s1.7,1.3,2.9,1.3c1.4,0,2.8-0.5,4.1-1.6v-7.6C96.7,14.1,95.4,14,94.3,14z"/>
			<path class="st0" d="M115.3,9.9c2.7,0,4.9,0.8,6.6,2.4s2.5,3.7,2.5,6.3s-0.8,4.7-2.5,6.4c-1.7,1.6-3.8,2.4-6.6,2.4
				c-2.7,0-4.9-0.8-6.6-2.4s-2.5-3.7-2.5-6.4c0-2.6,0.8-4.7,2.5-6.3C110.3,10.7,112.6,9.9,115.3,9.9z M119.7,18.6
				c0-1.3-0.4-2.4-1.2-3.2c-0.8-0.8-1.9-1.2-3.2-1.2c-1.3,0-2.4,0.4-3.2,1.2c-0.8,0.8-1.2,1.9-1.2,3.2c0,1.4,0.4,2.5,1.2,3.3
				c0.8,0.9,1.9,1.3,3.2,1.3c1.3,0,2.4-0.4,3.2-1.3C119.3,21,119.7,19.9,119.7,18.6z"/>
		</g>
		<g>
			<path class="st1" d="M22.3,15l6.4-6.4c1.6-1.6,1.5-5-0.5-7s-5.4-2.1-7-0.5l-6.4,6.4L7.4,15l6.5,6.5l0.9,0.9l6.4,6.4
				c1.6,1.6,5,1.5,7-0.5s2.1-5.4,0.5-7L22.3,15z"/>
			<path class="st2" d="M5.3,0C2.5,0,0,2.4,0,4.6v20.8C0,27.6,2.5,30,5.3,30c2.4,0,4.9-2.8,4.9-2.8L22.3,15L10.2,2.8
				C10.2,2.8,7.7,0,5.3,0z"/>
			<polygon class="st3" points="22.3,15 14.9,7.5 7.4,15 13.9,21.5 14.9,22.4 21.4,15.9 			"/>
		</g>
	</g>
</g>
</svg>
