<?xml version="1.0" encoding="utf-8"?>
<!-- Generator: Adobe Illustrator 24.0.1, SVG Export Plug-In . SVG Version: 6.00 Build 0)  -->
<svg version="1.1" id="Calque_1" xmlns="http://www.w3.org/2000/svg" xmlns:xlink="http://www.w3.org/1999/xlink" x="0px" y="0px"
	 viewBox="0 0 124.4 30" style="enable-background:new 0 0 124.4 30;" xml:space="preserve">
<style type="text/css">
	.st0{fill:#FFFFFF;}
	.st1{opacity:0.2;fill:#FFFFFF;}
	.st2{opacity:0.6;fill:#FFFFFF;}
</style>
<g>
	<g>
		<path class="st0" d="M42.8,16.5h1l5.3-5.8h5.6l-6.1,6.7l6.5,9.4h-5.4l-4.2-6h-2.6v6h-4.7V2.9h4.7V16.5z"/>
		<path class="st0" d="M63.5,10.2c2.1,0,5.2,0.3,9.2,0.8v15.9H68v-1.2c-1.4,1.1-3.1,1.7-4.9,1.7c-2.3,0-4.1-0.8-5.6-2.4
			c-1.4-1.6-2.2-3.7-2.2-6.3c0.1-2.6,0.8-4.7,2.2-6.2S61,10.2,63.5,10.2z M64.2,14c-2.8,0-4.2,1.6-4.2,4.8c0,1.4,0.4,2.5,1.1,3.3
			c0.7,0.8,1.7,1.3,2.9,1.3c1.4,0,2.8-0.5,4.1-1.6v-7.6C66.6,14.1,65.3,14,64.2,14z"/>
		<path class="st0" d="M82,2.9v23.9h-4.7V2.9H82z"/>
		<path class="st0" d="M93.6,10.2c2.1,0,5.2,0.3,9.2,0.8v15.9h-4.7v-1.2c-1.4,1.1-3.1,1.7-4.9,1.7c-2.3,0-4.1-0.8-5.6-2.4
			c-1.4-1.6-2.2-3.7-2.2-6.3c0.1-2.6,0.8-4.7,2.2-6.2S91.2,10.2,93.6,10.2z M94.4,14c-2.8,0-4.2,1.6-4.2,4.8c0,1.4,0.4,2.5,1.1,3.3
			c0.7,0.8,1.7,1.3,2.9,1.3c1.4,0,2.8-0.5,4.1-1.6v-7.6C96.7,14.1,95.5,14,94.4,14z"/>
		<path class="st0" d="M115.3,10c2.7,0,4.9,0.8,6.6,2.4c1.7,1.6,2.5,3.7,2.5,6.3c0,2.6-0.8,4.7-2.5,6.4c-1.7,1.6-3.8,2.4-6.6,2.4
			s-4.9-0.8-6.6-2.4c-1.7-1.6-2.5-3.7-2.5-6.4c0-2.6,0.8-4.7,2.5-6.3C110.4,10.8,112.6,10,115.3,10z M119.8,18.6
			c0-1.3-0.4-2.4-1.2-3.2s-1.9-1.2-3.2-1.2s-2.4,0.4-3.2,1.2c-0.8,0.8-1.2,1.9-1.2,3.2c0,1.4,0.4,2.5,1.2,3.3
			c0.8,0.9,1.9,1.3,3.2,1.3s2.4-0.4,3.2-1.3C119.4,21.1,119.8,20,119.8,18.6z"/>
	</g>
	<g>
		<g>
			<path class="st1" d="M28.8,21.5L22.3,15l0,0l0,0l-7.4,7.4l0,0l6.4,6.4c1.6,1.6,5,1.5,7-0.5S30.3,23,28.8,21.5z"/>
			<path class="st1" d="M22.3,15l6.4-6.4c1.6-1.6,1.5-5-0.5-7c-2-2-5.4-2.1-7-0.5l-6.4,6.4l0,0L22.3,15z"/>
			<path class="st0" d="M14,21.6L7.4,15l7.5-7.5l0,0l0,0l0,0l-4.7-4.7c0,0-2.5-2.8-4.9-2.8C2.5,0.1,0,2.4,0,4.6v20.9
				c0,2.2,2.5,4.6,5.3,4.6c2.4,0,4.9-2.8,4.9-2.8l4.7-4.7l0,0L14,21.6z"/>
		</g>
		<polygon class="st2" points="21.4,15.9 22.3,15 22.3,15 14.9,7.6 14.9,7.6 14.9,7.6 7.4,15 14,21.6 14.9,22.5 14.9,22.5 
			14.9,22.5 14.9,22.5 		"/>
	</g>
</g>
</svg>
